<svg id="eAFjzI0m6tW1" xmlns="http://www.w3.org/2000/svg" xmlns:xlink="http://www.w3.org/1999/xlink" viewBox="0 0 13 18" shape-rendering="geometricPrecision" text-rendering="geometricPrecision"><style><![CDATA[#eAFjzI0m6tW4_to {animation: eAFjzI0m6tW4_to__to 2000ms linear infinite normal forwards}@keyframes eAFjzI0m6tW4_to__to { 0% {transform: translate(6.580229px,27px)} 50% {transform: translate(6.580229px,9px)} 100% {transform: translate(6.580229px,-9px)}}]]></style><path id="eAFjzI0m6tW2" d="M12.9384,6.08067C12.9384,5.7479,12.6611,5.47563,12.3223,5.47563C11.9834,5.47563,11.7062,5.7479,11.7062,6.08067L11.7062,8.89412C11.7062,10.316,11.1209,11.5866,10.1659,12.5244C9.2109,13.4622,7.91706,14.037,6.46919,14.037C5.02133,14.037,3.72749,13.4622,2.77251,12.5244C1.81754,11.5866,1.23223,10.316,1.23223,8.89412L1.23223,6.08067C1.23223,5.7479,0.954976,5.47563,0.616114,5.47563C0.277251,5.47563,0,5.7479,0,6.08067L0,8.89412C0,10.6487,0.739337,12.2521,1.90995,13.4017C2.92654,14.4,4.3436,15.0958,5.88389,15.2471L5.88389,17.395C5.88389,17.7277,6.16114,18,6.5,18C6.83886,18,7.11611,17.7277,7.11611,17.395L7.11611,15.2471C8.6564,15.0958,10.0427,14.4303,11.09,13.4017C12.2607,12.2521,13,10.6487,13,8.89412C12.9384,8.89412,12.9384,6.08067,12.9384,6.08067ZM6.46919,0C7.609,0,8.62559,0.453782,9.36493,1.17983C10.1043,1.90588,10.5664,2.9042,10.5664,4.02353L10.5664,8.89412C10.5664,10.0134,10.1043,11.0118,9.36493,11.7378C8.62559,12.4639,7.609,12.9176,6.46919,12.9176C5.32938,12.9176,4.3128,12.4639,3.57346,11.7378C2.83412,11.0118,2.37204,9.98319,2.37204,8.89412L2.37204,4.02353C2.37204,2.9042,2.83412,1.90588,3.57346,1.17983C4.3128,0.453782,5.32938,0,6.46919,0Z" fill="rgb(245,20,0)" stroke="none" stroke-width="1"/><g id="eAFjzI0m6tW3" mask="url(#eAFjzI0m6tW5)"><g id="eAFjzI0m6tW4_to" transform="translate(6.580229,27)"><rect id="eAFjzI0m6tW4" width="13.160458" height="18" rx="0" ry="0" transform="translate(-6.580229,-9)" fill="rgb(255,255,255)" stroke="none" stroke-width="0"/></g><mask id="eAFjzI0m6tW5" mask-type="luminance"><path id="eAFjzI0m6tW6" d="M12.9384,6.08067C12.9384,5.7479,12.6611,5.47563,12.3223,5.47563C11.9834,5.47563,11.7062,5.7479,11.7062,6.08067L11.7062,8.89412C11.7062,10.316,11.1209,11.5866,10.1659,12.5244C9.2109,13.4622,7.91706,14.037,6.46919,14.037C5.02133,14.037,3.72749,13.4622,2.77251,12.5244C1.81754,11.5866,1.23223,10.316,1.23223,8.89412L1.23223,6.08067C1.23223,5.7479,0.954976,5.47563,0.616114,5.47563C0.277251,5.47563,0,5.7479,0,6.08067L0,8.89412C0,10.6487,0.739337,12.2521,1.90995,13.4017C2.92654,14.4,4.3436,15.0958,5.88389,15.2471L5.88389,17.395C5.88389,17.7277,6.16114,18,6.5,18C6.83886,18,7.11611,17.7277,7.11611,17.395L7.11611,15.2471C8.6564,15.0958,10.0427,14.4303,11.09,13.4017C12.2607,12.2521,13,10.6487,13,8.89412C12.9384,8.89412,12.9384,6.08067,12.9384,6.08067ZM6.46919,0C7.609,0,8.62559,0.453782,9.36493,1.17983C10.1043,1.90588,10.5664,2.9042,10.5664,4.02353L10.5664,8.89412C10.5664,10.0134,10.1043,11.0118,9.36493,11.7378C8.62559,12.4639,7.609,12.9176,6.46919,12.9176C5.32938,12.9176,4.3128,12.4639,3.57346,11.7378C2.83412,11.0118,2.37204,9.98319,2.37204,8.89412L2.37204,4.02353C2.37204,2.9042,2.83412,1.90588,3.57346,1.17983C4.3128,0.453782,5.32938,0,6.46919,0Z" fill="rgb(255,255,255)" stroke="none" stroke-width="1"/></mask></g></svg>