<svg
      width="194"
      height="11"
      viewBox="0 0 194 11"
      fill="none"
      xmlns="http://www.w3.org/2000/svg"
    >
      <path d="M193 11L193 -4.11272e-06" stroke="#F2EFED" />
      <path d="M187 11L187 -4.11272e-06" stroke="#F2EFED" />
      <path d="M181 11L181 -4.11272e-06" stroke="#F2EFED" />
      <path d="M175 11L175 -4.11272e-06" stroke="#F2EFED" />
      <path d="M169 11L169 -4.11272e-06" stroke="#F2EFED" />
      <path d="M163 11L163 -4.11272e-06" stroke="#F2EFED" />
      <path d="M157 11L157 -4.11272e-06" stroke="#F2EFED" />
      <path d="M151 11L151 -4.11272e-06" stroke="#F2EFED" />
      <path d="M145 11L145 -4.11272e-06" stroke="#F2EFED" />
      <path d="M139 11L139 -4.11272e-06" stroke="#F2EFED" />
      <path d="M133 11L133 -4.11272e-06" stroke="#F2EFED" />
      <path d="M127 11L127 -4.11272e-06" stroke="#F2EFED" />
      <path d="M121 11L121 -4.11272e-06" stroke="#F2EFED" />
      <path d="M115 11L115 -4.11272e-06" stroke="#F2EFED" />
      <path d="M109 11L109 -4.11272e-06" stroke="#F2EFED" />
      <path d="M103 11L103 -4.11272e-06" stroke="#F2EFED" />
      <path d="M97 11L97 -4.11272e-06" stroke="#F2EFED" />
      <path d="M91 11L91 -4.11272e-06" stroke="#F2EFED" />
      <path d="M85 11L85 -4.11272e-06" stroke="#F2EFED" />
      <path d="M79 11L79 -4.11272e-06" stroke="#F2EFED" />
      <path d="M73 11L73 -4.11272e-06" stroke="#F2EFED" />
      <path d="M67 11L67 -4.11272e-06" stroke="#F2EFED" />
      <path d="M61 11L61 -4.11272e-06" stroke="#F2EFED" />
      <path d="M55 11L55 -4.11272e-06" stroke="#F2EFED" />
      <path d="M49 11L49 -4.11272e-06" stroke="#F2EFED" />
      <path d="M43 11L43 -4.11272e-06" stroke="#F2EFED" />
      <path d="M37 11L37 -4.11272e-06" stroke="#F2EFED" />
      <path d="M31 11L31 -4.11272e-06" stroke="#F2EFED" />
      <path d="M25 11L25 -4.11272e-06" stroke="#F2EFED" />
      <path d="M19 11L19 -4.11272e-06" stroke="#F2EFED" />
      <path d="M13 11L13 -4.11272e-06" stroke="#F2EFED" />
      <path d="M7 11L7 -3.74019e-06" stroke="#F2EFED" />
      <path d="M1 11L1 -3.74019e-06" stroke="#F2EFED" />
    </svg>