<svg width="354" height="189" viewBox="0 0 354 189" fill="none" xmlns="http://www.w3.org/2000/svg">
<path d="M219.322 -437.118L228.423 -431.556L237.226 -425.948L246.124 -419.745L254.725 -413.495L263.123 -406.604L271.224 -399.667L279.121 -392.088L286.175 -384.071L293.026 -375.413L298.689 -366.567L304.149 -357.08L308.717 -347.452L313.036 -337.479L317.058 -327.46L320.783 -317.394L323.866 -307.531L327.294 -297.418L330.128 -287.21L333.212 -277.347L335.748 -267.093L338.535 -257.183L341.025 -247.225L343.561 -236.971L345.754 -226.967L347.697 -216.618L349.592 -206.567L350.941 -196.125L352.243 -185.979L353.295 -175.49L353.705 -165.204L353.569 -154.526L353.385 -144.146L352.311 -133.624L350.893 -123.353L349.177 -113.034L347.118 -102.965L344.761 -92.8499L342.108 -82.6873L339.11 -72.7747L336.113 -62.8621L332.771 -53.1995L329.18 -43.1929L325.197 -33.7332L320.917 -24.2266L316.341 -14.6729L311.373 -5.66617L306.108 3.38752L300.452 11.8942L294.156 20.1979L287.515 28.2517L280.139 35.5084L272.763 42.7652L264.652 49.2249L256.15 55.1377L247.257 60.5035L238.02 65.6192L228.642 69.844L218.873 73.5218L209.01 76.6055L199.099 79.3922L189.095 81.5848L179.341 83.4335L169.586 85.2822L160.129 87.0839L150.969 88.8385L142.2 91.1401L133.43 93.4417L125.052 96.2903L116.768 99.7331L108.828 103.426L100.732 108.056L92.9799 112.937L84.6809 118.209L76.7728 124.027L68.3649 130.534L59.6599 137.088L50.705 143.986L41.453 150.931L31.56 157.673L21.6199 164.118L10.9918 170.062L-0.0272291 175.46L-11.2345 179.67L-22.5829 182.989L-34.1191 185.12L-45.7026 186.954L-57.4269 187.896L-69.2455 188.245L-81.2051 187.703L-92.9146 186.816L-104.468 184.992L-116.116 182.574L-127.56 179.514L-138.849 175.517L-149.888 171.175L-160.677 166.49L-171.309 160.866L-181.645 155.195L-191.778 148.884L-201.708 141.931L-211.091 134.587L-220.177 127.197L-229.059 119.165L-237.395 110.742L-245.481 101.975L-253.317 92.864L-260.606 83.3621L-267.301 73.7661L-273.449 63.779L-279.346 53.4479L-284.65 43.0228L-289.407 32.2066L-293.867 21.3434L-298.03 10.4332L-301.849 -0.227L-305.714 -11.1842L-308.689 -22.2825L-310.476 -33.5689L-311.122 -45.3404L-310.876 -57.2529L-309.693 -69.0095L-307.869 -80.563L-305.7 -91.8667L-303.235 -103.217L-300.379 -114.021L-297.819 -124.778L-295.213 -135.237L-292.559 -145.4L-290.453 -155.171L-288.393 -165.24L-286.881 -174.917L-285.962 -184.501L-285.044 -194.084L-284.469 -203.918L-284.489 -213.657L-284.508 -223.397L-284.622 -233.73L-284.986 -243.719L-285.146 -254.35L-285.26 -264.683L-285.124 -275.361L-284.096 -286.179L-282.428 -296.795L-279.774 -306.957L-276.48 -316.917L-272.247 -326.721L-266.982 -335.774L-261.077 -344.625L-254.733 -352.632L-247.451 -360.483L-239.778 -367.786L-231.761 -374.84L-223.603 -381.003L-215.148 -387.213L-206.646 -393.125L-198.144 -399.038L-189.548 -404.357L-180.999 -409.973L-172.7 -415.244L-164.151 -420.86L-155.852 -426.132L-147.553 -431.404L-138.91 -436.425L-130.267 -441.447L-121.53 -445.875L-112.449 -450.053L-103.321 -453.933L-94.5366 -458.064L-85.4554 -462.242L-76.3742 -466.419L-67.2931 -470.597L-57.915 -474.822L-48.4898 -478.75L-39.0177 -482.38L-29.2014 -485.761L-19.3383 -488.845L-9.42794 -491.631L0.873369 -493.871L11.2217 -495.814L21.664 -497.163L32.1534 -498.214L42.3929 -498.922L53.0233 -499.083L63.7478 -498.649L74.2222 -497.872L84.7908 -496.5L95.1563 -494.488L105.569 -492.178L115.529 -488.884L125.582 -484.995L135.089 -480.716L144.643 -476.139L154.196 -471.563L163.453 -466.939L173.007 -462.362L182.31 -457.442L191.614 -452.521L200.918 -447.6L209.971 -442.336L219.322 -437.118Z" fill="#8D48FF"/>
</svg>
