<svg width="311" height="223" viewBox="0 0 311 223" fill="none" xmlns="http://www.w3.org/2000/svg">
<path d="M176.09 617.188L168.237 611.063L160.602 604.568L153.261 597.998L146.214 591.351L139.091 584.411L132.044 577.765L125.291 571.042L118.463 564.026L111.928 556.934L105.393 549.842L99.1516 542.674L92.8347 535.211L86.8118 527.673L81.0828 520.06L75.3539 512.446L69.6249 504.832L64.114 496.848L58.897 488.788L53.6041 480.435L48.6811 472.299L43.6822 463.869L38.9013 455.07L34.4903 446.489L30.0034 437.613L25.8105 428.662L21.8356 419.341L18.1546 409.944L14.7677 400.471L11.6746 390.922L8.79967 381.003L6.29457 371.303L4.00754 361.232L2.30841 351.01L0.903234 340.711L0.161914 330.555L0.00846202 320.247L0.149033 309.863L0.953387 299.622L2.3457 289.228L4.10789 279.052L6.53387 269.019L8.95989 258.986L12.3437 249.018L15.8034 239.345L20.0028 230.108L24.4962 220.795L29.6535 211.624L34.9626 203.041L40.5656 194.382L46.9084 186.159L53.403 178.525L60.1915 170.814L67.1319 163.691L74.3663 156.492L81.7525 149.881L89.2145 143.564L96.9706 137.172L104.509 131.149L112.416 125.344L120.03 119.615L128.014 114.104L135.704 108.669L143.394 103.234L151.084 97.7989L158.697 92.0699L166.387 86.6349L174.001 80.9059L181.615 75.1769L189.153 69.154L197.061 63.3491L204.893 57.2503L213.095 51.3695L221.221 45.1947L229.716 39.238L238.288 33.5752L247.23 28.1305L256.465 22.6099L265.929 17.9712L275.762 13.5505L285.671 9.42382L295.808 6.17894L306.096 3.52202L316.906 1.67108L327.575 0.483963L338.177 0.254644L348.636 0.689148L359.324 2.00555L369.869 3.98577L380.197 6.33583L390.6 8.97992L401.003 11.624L410.895 14.7138L421.156 18.0217L431.123 21.4055L440.872 25.1591L450.621 28.9128L460.446 32.9604L470.271 37.0081L479.584 41.5015L489.191 45.919L498.58 50.7064L508.045 55.7877L517.216 60.945L526.245 66.766L535.198 72.2931L543.714 78.56L552.601 85.0449L560.9 91.6817L568.98 98.6883L576.767 105.771L584.705 113.441L592.056 121.264L599.113 129.162L606.321 137.648L612.866 145.992L618.974 155.075L625.083 164.159L630.603 173.395L635.906 183L640.839 192.387L645.335 202.515L649.462 212.424L653.371 222.703L656.691 233.133L659.348 243.422L661.787 254.08L663.638 264.891L665.119 275.483L666.012 286.227L666.612 297.047L666.547 307.725L666.188 318.479L665.536 329.308L664.219 339.996L662.827 350.389L660.847 360.935L658.791 371.186L656.441 381.514L654.015 391.547L651.219 401.362L648.205 411.548L645.409 421.363L642.319 431.254L639.229 441.146L636.064 450.743L632.68 460.71L629.22 470.383L625.391 479.838L621.637 489.588L617.513 499.119L613.39 508.65L608.972 518.257L604.479 527.57L599.398 537.035L594.61 546.424L589.235 555.964L583.414 564.993L577.593 574.022L571.108 582.909L564.623 591.795L557.692 600.17L550.022 608.108L542.275 615.753L533.789 622.961L525.151 629.582L516.068 635.69L506.614 641.581L496.933 646.589L486.806 651.086L476.603 655.289L466.248 658.903L455.741 661.93L445.159 664.663L434.424 666.808L423.908 668.583L412.946 669.846L402.278 671.033L391.533 671.926L380.931 672.156L370.33 672.385L359.728 672.614L349.268 672.18L338.808 671.745L328.272 671.017L318.03 670.212L307.713 669.114L297.613 667.646L287.144 665.96L277.186 663.828L267.153 661.402L257.337 658.606L247.446 655.516L237.773 652.056L228.318 648.227L219.005 643.733L209.986 639.164L201.185 634.225L192.602 628.916L184.237 623.237L176.09 617.188Z" fill="#FFA000"/>
</svg>
