<svg width="429" height="168" viewBox="0 0 429 168" fill="none" xmlns="http://www.w3.org/2000/svg">
<path d="M294.322 -458.118L303.423 -452.556L312.226 -446.948L321.124 -440.745L329.725 -434.495L338.123 -427.604L346.224 -420.667L354.121 -413.088L361.175 -405.071L368.026 -396.413L373.689 -387.567L379.148 -378.08L383.717 -368.452L388.036 -358.479L392.058 -348.46L395.783 -338.394L398.866 -328.531L402.294 -318.418L405.128 -308.21L408.212 -298.347L410.748 -288.093L413.535 -278.183L416.025 -268.225L418.561 -257.971L420.754 -247.967L422.697 -237.618L424.592 -227.567L425.941 -217.125L427.243 -206.979L428.295 -196.49L428.705 -186.204L428.569 -175.526L428.385 -165.146L427.311 -154.624L425.893 -144.353L424.177 -134.034L422.118 -123.965L419.761 -113.85L417.108 -103.687L414.11 -93.7747L411.113 -83.8621L407.771 -74.1995L404.18 -64.1929L400.197 -54.7332L395.917 -45.2266L391.341 -35.6729L386.373 -26.6662L381.108 -17.6125L375.453 -9.10577L369.156 -0.802059L362.515 7.25168L355.139 14.5084L347.763 21.7652L339.652 28.2249L331.15 34.1377L322.257 39.5035L313.02 44.6192L303.642 48.844L293.873 52.5218L284.01 55.6055L274.099 58.3922L264.095 60.5849L254.341 62.4336L244.586 64.2822L235.129 66.0839L225.969 67.8385L217.2 70.1401L208.43 72.4417L200.052 75.2904L191.768 78.733L183.828 82.4256L175.732 87.0563L167.98 91.937L159.681 97.2087L151.773 103.027L143.365 109.534L134.66 116.088L125.705 122.986L116.453 129.931L106.56 136.673L96.6199 143.118L85.9918 149.062L74.9728 154.46L63.7655 158.67L52.4171 161.989L40.8809 164.12L29.2974 165.954L17.5731 166.896L5.75454 167.245L-6.20507 166.703L-17.9146 165.816L-29.4682 163.992L-41.1157 161.574L-52.5605 158.514L-63.8492 154.517L-74.8878 150.175L-85.6767 145.49L-96.3094 139.866L-106.645 134.195L-116.778 127.884L-126.708 120.931L-136.091 113.587L-145.177 106.197L-154.059 98.1647L-162.395 89.7418L-170.481 80.975L-178.317 71.8641L-185.606 62.3621L-192.301 52.7661L-198.449 42.779L-204.346 32.4479L-209.65 22.0228L-214.407 11.2066L-218.867 0.343428L-223.03 -10.5668L-226.849 -21.227L-230.714 -32.1842L-233.689 -43.2825L-235.476 -54.5689L-236.122 -66.3404L-235.876 -78.2529L-234.693 -90.0095L-232.869 -101.563L-230.7 -112.867L-228.235 -124.217L-225.379 -135.021L-222.819 -145.778L-220.213 -156.237L-217.559 -166.4L-215.453 -176.171L-213.393 -186.24L-211.881 -195.917L-210.962 -205.501L-210.044 -215.084L-209.469 -224.918L-209.489 -234.657L-209.508 -244.397L-209.622 -254.73L-209.986 -264.719L-210.146 -275.35L-210.26 -285.683L-210.124 -296.361L-209.096 -307.179L-207.428 -317.795L-204.774 -327.957L-201.48 -337.917L-197.247 -347.721L-191.982 -356.774L-186.077 -365.625L-179.733 -373.632L-172.451 -381.483L-164.778 -388.786L-156.761 -395.84L-148.603 -402.003L-140.148 -408.213L-131.646 -414.125L-123.144 -420.038L-114.548 -425.357L-105.999 -430.973L-97.7002 -436.244L-89.1512 -441.86L-80.8522 -447.132L-72.5532 -452.404L-63.9102 -457.425L-55.267 -462.447L-46.53 -466.875L-37.4488 -471.053L-28.3206 -474.933L-19.5366 -479.064L-10.4554 -483.242L-1.37421 -487.419L7.70696 -491.597L17.0851 -495.822L26.5102 -499.75L35.9823 -503.38L45.7986 -506.761L55.6617 -509.845L65.5721 -512.632L75.8734 -514.871L86.2217 -516.814L96.6641 -518.163L107.153 -519.214L117.393 -519.922L128.023 -520.083L138.748 -519.649L149.222 -518.872L159.791 -517.5L170.156 -515.488L180.569 -513.178L190.529 -509.884L200.582 -505.995L210.089 -501.716L219.643 -497.139L229.196 -492.563L238.453 -487.939L248.007 -483.362L257.31 -478.442L266.614 -473.521L275.918 -468.6L284.971 -463.336L294.322 -458.118Z" fill="#8D48FF"/>
</svg>
