<svg width="102" height="103" viewBox="0 0 102 103" fill="none" xmlns="http://www.w3.org/2000/svg">
<path d="M101.852 47.8034C102.007 35.2809 92.864 14.6262 71.8411 5.49096C49.3954 -4.23843 37.9898 -0.727829 21.4762 16.1694C11.8666 26.0068 6.61867 33.2672 3.82754 43.3283C0.95088 53.5592 -2.39226 62.5016 7.32617 75.6259C30.9614 108.247 67.0829 107.615 85.0736 91.6357C103.064 75.6567 101.789 52.4327 101.852 47.8034ZM65.3569 68.1417C63.6926 69.9398 61.6614 71.3653 59.3984 72.3232C57.1355 73.2811 54.6928 73.7494 52.2331 73.697C49.7601 73.7468 47.3043 73.2778 45.0266 72.3204C42.7489 71.3631 40.7007 69.9391 39.0161 68.1417C35.4397 64.4279 33.6515 59.027 33.6515 51.9389C33.6515 44.8508 35.4397 39.4242 39.0161 35.659C40.6884 33.8403 42.7323 32.3965 45.0115 31.4239C47.2907 30.4513 49.7526 29.9723 52.2331 30.0189C54.7002 29.9701 57.1491 30.4485 59.4135 31.4216C61.6779 32.3948 63.7049 33.8399 65.3569 35.659C68.8763 39.4191 70.6359 44.8457 70.6359 51.9389C70.6359 59.0321 68.8763 64.4356 65.3569 68.1494V68.1417Z" fill="#17DDAB"/>
</svg>
