<svg width="562" height="556" viewBox="0 0 562 556" fill="none" xmlns="http://www.w3.org/2000/svg">
<path d="M244.718 0.934844L253.203 0.803711L261.742 1.03445L270.127 1.4726L278.358 2.11816L286.796 2.91822L295.026 3.56378L303.103 4.41673L311.387 5.4242L327.646 7.85389L335.621 9.27612L343.805 10.8529L351.833 12.637L375.457 18.6116L383.385 20.9651L391.159 23.5259L399.14 26.2413L406.76 29.0095L414.587 31.9322L422.468 35.2168L429.986 38.5544L437.713 42.0464L445.285 45.7458L452.91 49.8071L460.381 54.0759L467.698 58.552L474.861 63.2355L482.077 68.2809L488.931 73.3792L495.839 78.8394L502.438 84.7144L508.883 90.7968L514.811 97.1396L520.431 103.897L525.897 110.862L530.846 118.087L535.487 125.727L539.766 133.42L547.292 149.327L550.384 157.747L553.269 166.014L555.429 174.386L557.435 182.966L558.925 191.806L560 200.337L560.921 209.075L561.117 217.919L560.898 226.454L560.525 235.197L559.736 243.631L558.793 252.272L557.435 260.604L555.869 268.781L554.149 277.166L552.375 285.189L550.239 293.265L548.258 301.133L545.915 309.055L539.347 332.197L537.366 340.066L535.177 347.78L531.214 363.517L529.44 371.54L527.305 379.616L525.377 387.846L523.087 396.129L521.004 404.567L518.56 413.058L515.908 421.394L512.894 429.783L509.726 438.38L505.935 446.513L501.782 454.699L497.421 462.73L492.437 470.298L487.037 477.557L480.86 484.56L474.423 491.047L467.516 496.862L460.348 502.161L452.557 506.997L444.505 511.316L436.399 515.274L419.772 522.88L411.56 526.114L402.986 529.4L394.565 532.479L377.618 537.914L360.256 543.04L351.675 545.033L342.941 547.234L334.152 549.073L325.157 550.758L316.315 552.235L307.212 553.195L298.317 554.311L289.315 554.702L279.951 555.146L270.896 555.176L261.787 554.844L252.833 554.304L243.463 553.455L234.402 552.192L225.495 550.721L216.172 548.941L207.366 546.901L189.54 541.373L180.935 538.194L172.277 534.653L163.981 531.059L155.578 526.742L147.537 522.372L139.443 517.639L131.657 512.492L124.388 507.085L117.065 501.316L110.05 495.132L103.398 488.895L97.054 482.243L90.8643 475.384L85.1909 468.265L79.6717 460.938L74.3068 453.404L69.4582 445.609L64.8172 437.969L60.4848 429.915L56.3601 422.014L52.3897 413.906L48.627 405.953L45.2262 397.947L41.772 389.579L38.3713 381.573L31.8783 365.146L28.8395 357.087L25.7473 348.666L22.8628 340.4L20.3402 332.08L17.61 323.606L12.8734 306.553L10.6594 297.819L8.65313 289.239L6.95536 280.245L5.10332 271.458L3.55982 262.256L1.61218 244.055L0.697021 225.334L0.809109 216.075L1.64515 206.71L2.68888 197.5L4.45656 188.184L6.63964 179.177L9.39239 170.271L12.5071 161.313L16.2449 152.818L20.5524 144.425L25.0676 136.186L29.9983 128.256L35.3443 120.635L40.898 113.169L46.8671 106.011L52.8896 99.2158L59.4819 92.5219L65.9198 86.0353L72.5655 79.7033L93.2858 62.2564L107.622 51.6579L114.997 46.5132L122.219 41.5759L129.648 36.793L137.13 32.372L144.975 27.8982L152.718 23.9936L160.67 20.2435L168.674 16.8554L176.887 13.6217L185.153 10.7498L193.472 8.23996L202.052 6.24646L210.479 4.46035L218.958 3.03611L227.491 1.97379L236.078 1.27336L244.718 0.934844Z" fill="black"/>
</svg>
